<svg width="73" height="64" viewBox="0 0 73 64" fill="none" xmlns="http://www.w3.org/2000/svg">
<path d="M34.5751 3.78462C35.2368 3.09575 35.9055 2.40746 36.6542 1.81226C38.0301 2.96484 39.246 4.29546 40.355 5.70229C41.7741 7.52513 42.9929 9.51902 43.8233 11.6776C44.6865 13.8949 45.1146 16.3059 44.8629 18.6815C45.6221 17.8815 46.4689 17.1629 47.3898 16.5544C49.2288 15.3512 51.3435 14.6111 53.502 14.2265C55.5869 13.8448 57.7202 13.8117 59.8302 13.9583C61.4391 14.0968 63.0486 14.3272 64.6062 14.7629C64.6394 14.7781 64.7066 14.8072 64.7405 14.8217C64.5063 16.8493 64.0134 18.8444 63.336 20.7696C62.4746 23.1958 61.2721 25.5237 59.6182 27.5112C58.6663 28.6393 57.5748 29.661 56.3303 30.4639C54.8931 31.3896 53.2894 32.0511 51.6279 32.4537C51.326 31.9749 51.0013 31.5106 50.6468 31.069C50.9359 31.0463 51.2115 30.9549 51.4907 30.8834C52.9092 30.504 54.2886 29.9385 55.5127 29.1251C55.5174 29.1088 55.5267 29.0757 55.5314 29.0594C54.7547 28.7033 53.9318 28.4549 53.1014 28.2594C52.7965 28.1965 52.4957 28.1099 52.1845 28.0895C50.6386 27.8725 49.0519 27.9109 47.5259 28.2454C46.7141 27.7392 45.8644 27.2907 44.9668 26.9538C46.3877 25.2479 47.3892 23.1917 47.8086 21.0128C47.9902 20.0301 48.0842 19.0271 48.034 18.0281C47.4786 18.3603 47.0009 18.8054 46.5191 19.2331C44.4996 21.1589 43.1062 23.6403 42.1146 26.2224C41.5487 26.1509 40.9793 26.1288 40.411 26.0857C40.5226 25.91 40.63 25.7296 40.7019 25.533C41.1212 24.4269 41.6275 23.3547 42.2051 22.3219C42.3558 22.0409 42.559 21.7849 42.6571 21.4783C43.1027 20.1611 43.3421 18.7752 43.3748 17.3864C42.5315 17.8658 41.7776 18.4918 41.0815 19.1638C39.5023 20.7051 38.339 22.6571 37.713 24.7679C37.6551 24.9663 37.5932 25.1629 37.5354 25.3613C37.4233 25.6947 37.4122 26.0491 37.4472 26.3964C36.9742 26.4965 36.5082 26.6245 36.0521 26.7827C35.9399 26.8502 35.8827 26.717 35.836 26.6408C35.8985 26.2509 35.8891 25.8384 35.777 25.4562C35.2537 23.3564 34.2294 21.3771 32.7805 19.7619C31.9489 18.8444 31.0005 18.0223 29.9317 17.3893C29.9224 18.909 30.274 20.4066 30.7511 21.8419C30.4106 21.711 30.0947 21.5254 29.7589 21.3846C29.4698 21.2613 29.1731 21.1595 28.8817 21.0437C28.4834 19.5944 28.2983 18.0828 28.376 16.5811C28.5091 14.1945 29.2508 11.8719 30.3353 9.75058C31.4507 7.57167 32.9148 5.58127 34.5751 3.78462ZM31.8011 10.3144C32.3571 10.6867 32.9131 11.0632 33.4135 11.5094C34.2744 12.2501 35.0195 13.1199 35.6403 14.0683C35.7122 14.1724 35.7566 14.3004 35.8617 14.3778C35.8728 12.0301 35.8634 9.68193 35.8663 7.33371C35.8576 6.45866 35.8844 5.58302 35.8535 4.70913C34.2738 6.39815 32.8821 8.26927 31.8011 10.3144ZM37.4426 4.75684C37.4046 5.34215 37.4718 5.93095 37.4385 6.518C37.4484 8.94011 37.4373 11.3628 37.4461 13.7861C37.4478 13.9845 37.4046 14.184 37.4513 14.3813C37.5465 14.2451 37.6335 14.1037 37.7258 13.9653C38.6853 12.5026 39.98 11.2715 41.4611 10.3394C41.3927 10.1177 41.273 9.91757 41.1621 9.71568C40.2358 8.06564 39.0976 6.54011 37.8303 5.1356C37.7048 5.00586 37.6026 4.8476 37.4426 4.75684ZM41.7776 12.0075L41.7817 12.0203C39.7856 13.4067 38.3133 15.5013 37.6405 17.8268C37.5354 18.1811 37.4128 18.536 37.4373 18.9107C37.4484 19.7253 37.4426 20.5421 37.4461 21.3573C37.4636 21.3357 37.4986 21.2927 37.5156 21.2706C38.5802 19.3849 40.0682 17.7325 41.8523 16.4973L41.8547 16.4659C41.9253 16.4374 41.9943 16.4031 42.0573 16.3595C42.4363 16.0947 42.8376 15.8632 43.2475 15.6514C43.0904 14.3103 42.6962 13 42.1619 11.7619C42.0351 11.8463 41.9072 11.9277 41.7776 12.0075ZM31.1149 11.7695C30.6168 13.0169 30.2039 14.3109 30.0421 15.6479C32.4972 16.9291 34.505 18.9869 35.8553 21.3875C35.8804 20.4828 35.8623 19.5763 35.8646 18.6716C35.4167 16.4723 34.2627 14.4162 32.603 12.8953C32.1387 12.4828 31.658 12.0744 31.1149 11.7695ZM54.938 15.5792C54.9935 16.7179 54.8685 17.8623 54.6122 18.973C54.4323 19.748 54.1415 20.4909 53.843 21.2258C56.377 19.503 58.918 17.7913 61.4531 16.0709C61.588 15.9731 61.7469 15.9021 61.8538 15.7712C59.5703 15.4035 57.2378 15.3378 54.938 15.5792ZM49.5477 17.1187C49.5308 17.3677 49.5938 17.6144 49.5968 17.8635C49.7212 20.3693 49.178 22.909 48.0229 25.1397C48.7973 24.669 49.529 24.1267 50.2876 23.6287C50.8746 23.0591 51.3546 22.3883 51.7926 21.7011C52.8689 19.9528 53.4307 17.8902 53.3665 15.8387C52.0478 16.1075 50.7531 16.5183 49.5477 17.1187ZM62.3432 17.3549L62.342 17.3695C59.8752 19.0207 57.4253 20.6969 54.9631 22.3539C54.8896 22.4045 54.8055 22.4488 54.7663 22.5331C56.3221 22.4563 57.8989 22.6664 59.3706 23.1801C59.7128 23.2982 60.0504 23.4297 60.3838 23.5717C61.4917 21.5487 62.2398 19.3471 62.7671 17.1083C62.6071 17.1542 62.4821 17.2694 62.3432 17.3549ZM53.8185 24.1954C52.9151 24.3344 52.0134 24.548 51.1771 24.9221C50.4266 25.4306 49.6657 25.9269 48.9281 26.4534C49.2043 26.4435 49.4811 26.4325 49.7568 26.4034C51.4971 26.3475 53.2497 26.5843 54.9018 27.14C55.6073 27.3791 56.3028 27.6566 56.954 28.0203C57.573 27.485 58.1261 26.8776 58.6394 26.2411C58.9635 25.8152 59.3058 25.3957 59.5651 24.9267C59.0815 24.7452 58.6015 24.5456 58.0969 24.431C56.7041 24.0784 55.2411 23.9667 53.8185 24.1954Z" fill="#172C17"/>
<path d="M31.8011 10.3145C32.8821 8.26937 34.2738 6.39825 35.8535 4.70923C35.8845 5.58312 35.8576 6.45876 35.8664 7.33381C35.8635 9.68203 35.8728 12.0302 35.8617 14.3779C35.7566 14.3005 35.7122 14.1725 35.6404 14.0684C35.0196 13.12 34.2744 12.2502 33.4136 11.5095C32.9131 11.0633 32.3571 10.6868 31.8011 10.3145Z" fill="#8DC740"/>
<path d="M37.4425 4.75684C37.6026 4.8476 37.7048 5.00585 37.8303 5.1356C39.0976 6.54011 40.2358 8.06564 41.162 9.71567C41.273 9.91756 41.3927 10.1177 41.461 10.3394C39.98 11.2715 38.6853 12.5026 37.7258 13.9653C37.6335 14.1037 37.5465 14.2451 37.4513 14.3813C37.4046 14.184 37.4478 13.9845 37.446 13.7861C37.4373 11.3628 37.4484 8.94011 37.4384 6.518C37.4717 5.93095 37.4046 5.34215 37.4425 4.75684Z" fill="#8DC740"/>
<path d="M31.1149 11.7695C31.658 12.0744 32.1387 12.4828 32.603 12.8953C34.2627 14.4162 35.4167 16.4724 35.8646 18.6716C35.8623 19.5764 35.8804 20.4828 35.8553 21.3876C34.505 18.987 32.4973 16.9291 30.0421 15.6479C30.2039 14.3109 30.6168 13.0169 31.1149 11.7695Z" fill="#8DC740"/>
<path d="M37.6405 17.8268C38.3133 15.5013 39.7856 13.4067 41.7817 12.0203C41.9878 12.8435 42.01 13.7023 42.0106 14.5471C42.0083 15.1906 41.9271 15.8283 41.8547 16.4659L41.8524 16.4974C40.0682 17.7326 38.5802 19.3849 37.5156 21.2706C37.4986 21.2927 37.4636 21.3358 37.4461 21.3573C37.4426 20.5422 37.4484 19.7253 37.4373 18.9107C37.4128 18.536 37.5354 18.1811 37.6405 17.8268Z" fill="#8DC740"/>
<path d="M54.938 15.5794C57.2378 15.338 59.5703 15.4037 61.8537 15.7714C61.7469 15.9023 61.588 15.9733 61.4531 16.0711C58.918 17.7915 56.377 19.5032 53.843 21.226C54.1414 20.4911 54.4323 19.7481 54.6121 18.9732C54.8685 17.8625 54.9935 16.718 54.938 15.5794Z" fill="#8DC740"/>
<path d="M54.9632 22.3541C57.4253 20.697 59.8752 19.0208 62.342 17.3696C62.3338 17.5273 62.2713 17.6745 62.2135 17.8194C61.5075 19.7202 60.5655 21.5378 59.3706 23.1802C57.8989 22.6665 56.3221 22.4565 54.7664 22.5333C54.8055 22.4489 54.8896 22.4047 54.9632 22.3541Z" fill="#8DC740"/>
<path d="M41.7776 12.0075C41.9072 11.9278 42.0351 11.8463 42.1619 11.762C42.6962 13.0001 43.0904 14.3103 43.2475 15.6514C42.8375 15.8632 42.4363 16.0948 42.0573 16.3595C41.9943 16.4031 41.9253 16.4375 41.8547 16.466C41.9271 15.8283 42.0083 15.1906 42.0106 14.5471C42.01 13.7023 41.9878 12.8436 41.7817 12.0203L41.7776 12.0075Z" fill="#68913E"/>
<path d="M62.3432 17.3551C62.4822 17.2696 62.6071 17.1544 62.7672 17.1084C62.2398 19.3472 61.4917 21.5488 60.3838 23.5718C60.0504 23.4299 59.7128 23.2984 59.3706 23.1803C60.5655 21.5378 61.5075 19.7202 62.2135 17.8194C62.2713 17.6745 62.3338 17.5273 62.342 17.3696L62.3432 17.3551Z" fill="#68913E"/>
<path d="M41.0815 19.1639C41.7776 18.4919 42.5315 17.8659 43.3748 17.3865C43.3421 18.7753 43.1027 20.1612 42.6571 21.4784C42.559 21.785 42.3558 22.041 42.2051 22.322C41.6275 23.3548 41.1212 24.4271 40.7019 25.5331C40.63 25.7297 40.5226 25.9101 40.411 26.0858C39.4159 26.0858 38.4184 26.176 37.4472 26.3965C37.4122 26.0492 37.4233 25.6948 37.5354 25.3615C37.55 25.3766 37.5792 25.4057 37.5932 25.4202C38.9627 23.6486 40.1541 21.7222 40.96 19.63C41.0137 19.4787 41.0978 19.3297 41.0815 19.1639Z" fill="#68913E"/>
<path d="M58.0969 24.4312C58.6015 24.5458 59.0815 24.7453 59.5651 24.9269C59.3058 25.3958 58.9636 25.8153 58.6395 26.2412C58.1261 26.8777 57.5731 27.4851 56.954 28.0204C56.3029 27.6568 55.6073 27.3792 54.9019 27.1401C55.6319 26.7689 56.2935 26.2773 56.9289 25.7641C57.3809 25.3667 57.8493 24.9786 58.2312 24.5109C58.1974 24.4911 58.1302 24.4509 58.0969 24.4312Z" fill="#68913E"/>
<path d="M52.1845 28.0896C52.4958 28.11 52.7965 28.1967 53.1014 28.2595C53.9318 28.455 54.7547 28.7034 55.5314 29.0595C55.5267 29.0758 55.5174 29.1089 55.5127 29.1252C54.2886 29.9386 52.9092 30.5041 51.4907 30.8835C51.2115 30.9551 50.9359 31.0464 50.6468 31.0691C50.0616 30.3215 49.3754 29.6553 48.6414 29.0537C49.9513 28.8855 51.2682 28.6505 52.508 28.1868C52.3988 28.1548 52.2919 28.1216 52.1845 28.0896Z" fill="#68913E"/>
<path d="M49.5477 17.1189C50.7531 16.5184 52.0478 16.1077 53.3665 15.8389C53.4307 17.8904 52.8689 19.9529 51.7926 21.7013C51.3546 22.3884 50.8746 23.0592 50.2876 23.6288C49.529 24.1269 48.7973 24.6691 48.0229 25.1398C49.178 22.9091 49.7212 20.3695 49.5968 17.8636C49.5938 17.6146 49.5308 17.3679 49.5477 17.1189Z" fill="#8EC740"/>
<path d="M29.9318 17.3894C31.0005 18.0224 31.9489 18.8445 32.7805 19.7621C34.2294 21.3772 35.2538 23.3565 35.777 25.4563C35.8891 25.8386 35.8985 26.2511 35.836 26.6409C34.8023 24.91 33.326 23.4531 31.6289 22.3657C31.3404 22.1836 31.0414 22.0207 30.7511 21.8421C30.274 20.4067 29.9224 18.9091 29.9318 17.3894Z" fill="#8EC740"/>
<path d="M46.5191 19.2333C47.0009 18.8056 47.4786 18.3605 48.034 18.0283C48.0842 19.0273 47.9902 20.0304 47.8086 21.013C47.3893 23.192 46.3877 25.2481 44.9668 26.954C44.0523 26.5904 43.0869 26.3658 42.1146 26.2226C43.1062 23.6405 44.4996 21.1591 46.5191 19.2333Z" fill="#8EC740"/>
<path d="M37.713 24.7681C38.339 22.6573 39.5024 20.7053 41.0815 19.1641C41.0979 19.3299 41.0138 19.4788 40.96 19.6301C40.1541 21.7223 38.9628 23.6487 37.5933 25.4204C37.5793 25.4058 37.5501 25.3767 37.5355 25.3616C37.5933 25.1632 37.6552 24.9665 37.713 24.7681Z" fill="#8EC740"/>
<path d="M53.8185 24.1955C55.2411 23.9668 56.7041 24.0785 58.0969 24.4311C58.1302 24.4509 58.1973 24.491 58.2312 24.5108C57.8493 24.9786 57.3809 25.3667 56.9289 25.764C56.2935 26.2772 55.6318 26.7688 54.9018 27.14C53.2497 26.5844 51.4971 26.3476 49.7568 26.4035C49.4811 26.4325 49.2043 26.4436 48.9281 26.4535C49.6657 25.927 50.4266 25.4307 51.1771 24.9221C52.0134 24.548 52.9151 24.3345 53.8185 24.1955Z" fill="#8EC740"/>
<path d="M47.5259 28.2456C49.0519 27.911 50.6387 27.8726 52.1845 28.0897C52.292 28.1217 52.3988 28.1548 52.508 28.1868C51.2682 28.6505 49.9513 28.8856 48.6414 29.0537C48.284 28.7652 47.9125 28.494 47.5259 28.2456Z" fill="#8EC740"/>
<path d="M16.032 19.168C16.4005 18.887 16.8981 18.7986 17.3448 18.9114C17.7332 19.0167 18.0731 19.2506 18.3534 19.5334C18.8364 20.0268 19.199 20.6237 19.5027 21.2387C19.7264 21.1846 19.9354 21.0863 20.1533 21.0141C22.9582 20.053 26.0844 20.0559 28.8817 21.0438C29.1732 21.1596 29.4698 21.2614 29.7589 21.3847C30.0947 21.5255 30.4107 21.7111 30.7511 21.842C31.0414 22.0207 31.3404 22.1836 31.6289 22.3657C33.326 23.4531 34.8023 24.91 35.836 26.6409C35.8827 26.7171 35.94 26.8503 36.0521 26.7828C36.5082 26.6246 36.9742 26.4966 37.4473 26.3965C38.4185 26.176 39.4159 26.0858 40.4111 26.0858C40.9793 26.1289 41.5487 26.151 42.1146 26.2226C43.087 26.3657 44.0523 26.5903 44.9669 26.9539C45.8645 27.2908 46.7142 27.7394 47.5259 28.2455C47.9126 28.494 48.284 28.7651 48.6414 29.0537C49.3755 29.6553 50.0617 30.3215 50.6468 31.0691C51.0013 31.5107 51.326 31.975 51.628 32.4538C53.3379 35.2041 53.9657 38.5932 53.3724 41.7716C52.9823 43.911 52.0514 45.9485 50.6877 47.6463C49.2908 49.397 47.4459 50.7904 45.3727 51.6492C43.7235 52.3357 41.933 52.6802 40.1471 52.6685C39.4446 55.0482 38.0494 57.2183 36.1806 58.8562C34.0758 60.7215 31.3614 61.8921 28.5547 62.1341C28.2084 62.1882 27.8551 62.1458 27.5088 62.1952C26.8465 62.1725 26.1772 62.1615 25.5185 62.062C22.8309 61.6954 20.2718 60.4771 18.2886 58.6345C16.8262 57.2852 15.6746 55.6032 14.9452 53.7559C13.6329 50.4547 13.7299 46.6234 15.2237 43.3978C15.2424 43.3315 15.3072 43.2652 15.278 43.1942C13.665 41.6611 12.4439 39.7225 11.7676 37.6052C11.1509 35.6538 10.9798 33.5599 11.3045 31.5386C11.3191 31.4543 11.3168 31.3699 11.3104 31.2861C10.6481 31.1599 10.0034 30.9283 9.42287 30.585C8.96443 30.3034 8.53869 29.9084 8.36524 29.3865C8.07032 28.6557 8.42539 27.7824 9.05144 27.3408C9.58113 26.93 10.2597 26.8114 10.8507 26.5193C10.9944 26.4512 11.141 26.3453 11.1719 26.1795C11.3401 25.4185 11.3968 24.6324 11.6397 23.8883C11.8143 23.3635 12.0976 22.8474 12.5613 22.5234C12.9088 22.2662 13.3497 22.1743 13.7748 22.169C14.0884 22.2132 14.4044 22.1714 14.7157 22.1324C14.8733 22.1021 15.0538 22.0399 15.1163 21.8775C15.2833 21.4476 15.1566 20.9792 15.2541 20.5376C15.3511 20.0146 15.6016 19.4979 16.032 19.168ZM16.7789 21.0025C16.7883 21.4546 16.7591 21.9154 16.6102 22.3453C16.4455 22.8172 16.1073 23.2396 15.6454 23.449C15.0684 23.7318 14.4108 23.744 13.7813 23.7277C13.4589 23.698 13.258 23.9977 13.1657 24.2642C12.9047 25.0479 12.858 25.8816 12.6541 26.6793C12.5368 27.1389 12.205 27.5177 11.8091 27.7679C11.2998 28.1094 10.6808 28.2164 10.14 28.494C10.0256 28.5527 9.91401 28.6278 9.84743 28.7407C9.78903 28.9263 9.96891 29.056 10.0927 29.1596C10.5646 29.5005 11.1381 29.6797 11.7069 29.774C12.6851 26.4599 15.0374 23.5776 18.0848 21.9328C17.9288 21.5459 17.697 21.1863 17.4394 20.857C17.2958 20.6935 17.1515 20.4998 16.9343 20.4352C16.8408 20.6103 16.7684 20.8006 16.7789 21.0025ZM18.9421 23.2378C16.7544 24.398 14.9545 26.2662 13.8776 28.4899C12.7517 30.8061 12.4054 33.5005 12.966 36.0175C13.4087 38.1533 14.4897 40.1443 16.004 41.7146C16.0302 41.7315 16.0834 41.7658 16.1102 41.7827C18.0036 38.7834 21.156 36.6016 24.6437 35.8982C25.5693 35.7033 26.5142 35.6271 27.4585 35.6102C27.7681 34.6554 28.1406 33.7175 28.6476 32.8483C29.6976 30.9981 31.2037 29.4098 32.9878 28.2461C33.1578 28.1315 33.3318 28.0221 33.5129 27.9261C33.799 27.7527 34.0945 27.5951 34.3982 27.4537C34.4864 27.4316 34.4414 27.3327 34.4058 27.2861C33.4842 25.8531 32.2526 24.6191 30.8119 23.7033C29.0978 22.6002 27.0883 21.9724 25.0536 21.8607C22.9425 21.7612 20.8039 22.2388 18.9421 23.2378ZM37.6406 27.9482C35.415 28.441 33.3587 29.6215 31.776 31.2512C30.5654 32.5219 29.6071 34.0498 29.0791 35.7254C29.429 35.7876 29.7817 35.8365 30.1298 35.9122C30.7476 36.014 31.3404 36.224 31.9337 36.4166C33.1987 36.896 34.4052 37.5412 35.4751 38.3709C38.3455 40.551 40.2686 43.9354 40.6155 47.5194L40.626 47.5183C40.6961 48.2973 40.7077 49.0816 40.661 49.863C40.6236 50.2749 40.5606 50.6834 40.5203 51.0947C40.8181 51.1337 41.1136 51.0546 41.4115 51.0563C42.2419 50.9813 43.0572 50.7887 43.8538 50.5478C46.0934 49.8287 48.1047 48.4218 49.5448 46.5676C50.9756 44.7523 51.8341 42.5036 52.0035 40.2036C52.014 39.445 52.0449 38.681 51.941 37.9276C51.701 36.1042 51.0422 34.3314 49.9957 32.8146C49.8619 32.6313 49.7586 32.416 49.5705 32.281C49.5261 32.1519 49.431 32.0489 49.348 31.9436C48.0621 30.3948 46.3836 29.1642 44.4967 28.4451C42.3307 27.602 39.9059 27.417 37.6406 27.9482ZM22.1313 38.3971C20.4318 39.239 18.9415 40.4963 17.829 42.0282C16.515 43.8278 15.7196 46.0084 15.6103 48.2339C15.5554 48.9013 15.5689 49.5826 15.6956 50.2412C15.667 50.4733 15.7324 50.7026 15.7558 50.933C15.9578 51.9744 16.2714 52.9996 16.7404 53.9538C18.1624 56.9431 20.9148 59.2756 24.1134 60.1711C24.9882 60.4242 25.8934 60.594 26.8062 60.6034C27.0789 60.6068 27.3499 60.6656 27.6232 60.6307C27.9339 60.5929 28.2481 60.6138 28.5588 60.5725C30.8837 60.3346 33.1303 59.3856 34.9162 57.8822C37.1167 56.0506 38.6211 53.3952 39.0089 50.5612C39.2302 49.0514 39.1333 47.5014 38.7747 46.0201C38.6959 45.7833 38.6614 45.529 38.5399 45.3085C38.3834 44.6726 38.0932 44.0768 37.8006 43.4932C36.8335 41.6495 35.37 40.0669 33.5987 38.9644C31.8088 37.8345 29.7034 37.2195 27.587 37.1735C25.7065 37.1427 23.8144 37.557 22.1313 38.3971Z" fill="#1A194E"/>
<path d="M42.6057 34.4157C42.9549 34.0497 43.4695 33.8594 43.9734 33.892C44.5633 33.8909 45.1356 34.1829 45.7278 34.0445C46.348 33.9188 47.0324 33.764 47.6275 34.0642C48.1566 34.3121 48.4755 34.8375 48.6682 35.3663C48.8504 35.8027 48.9088 36.2984 49.2084 36.6795C49.5705 37.1682 49.991 37.6465 50.1265 38.2568C50.3134 38.9538 50.0406 39.684 49.6108 40.2356C49.3778 40.5701 49.0759 40.8692 48.9439 41.2631C48.8236 41.6116 48.7366 41.9735 48.5719 42.3057C48.4352 42.6164 48.2472 42.8991 48.0083 43.1406C47.6544 43.4426 47.1808 43.5857 46.7177 43.5554C46.1459 43.549 45.5929 43.2733 45.0182 43.3966C44.4085 43.5199 43.7439 43.6799 43.1494 43.4111C42.6811 43.2244 42.3616 42.8008 42.1595 42.3563C41.9055 41.8053 41.8413 41.1653 41.4465 40.683C41.0056 40.1227 40.5197 39.4984 40.5395 38.7479C40.5021 37.9933 40.9828 37.3562 41.4278 36.7941C41.7414 36.4223 41.8553 35.9423 42.006 35.4926C42.1321 35.0999 42.3213 34.7194 42.6057 34.4157ZM43.7673 35.4623C43.6575 35.5554 43.6061 35.6957 43.5512 35.8248C43.3807 36.26 43.275 36.7197 43.063 37.1386C42.8463 37.579 42.4924 37.9293 42.2325 38.3418C42.1584 38.4651 42.0865 38.6018 42.0889 38.749C42.1274 38.9858 42.2734 39.1837 42.4136 39.3716C42.6898 39.7451 43.004 40.1023 43.1675 40.5439C43.3392 40.9466 43.4332 41.3783 43.6178 41.7757C43.6721 41.8676 43.7235 42.0125 43.8572 41.9973C44.2748 42.0066 44.6725 41.8495 45.0871 41.8199C45.618 41.753 46.136 41.9165 46.6563 41.9903C46.7796 41.9915 46.9553 42.0415 47.026 41.9037C47.2736 41.5069 47.3379 41.0303 47.5242 40.6056C47.7029 40.1245 48.0358 39.7265 48.3424 39.3227C48.4901 39.1092 48.6892 38.8567 48.5964 38.5815C48.4136 38.116 48.0235 37.7774 47.7735 37.3509C47.5031 36.9169 47.3764 36.4177 47.2146 35.9383C47.1457 35.769 47.0885 35.5682 46.9297 35.4612C46.6225 35.4205 46.3229 35.5188 46.0233 35.57C45.5946 35.6596 45.1473 35.6607 44.7175 35.5764C44.4033 35.5258 44.0897 35.4146 43.7673 35.4623Z" fill="#1A194E"/>
<path d="M22.2142 43.6119C22.8963 43.5118 23.5591 43.7492 24.2337 43.78C24.9753 43.7271 25.7293 43.4548 26.4698 43.6712C26.9609 43.7957 27.3528 44.164 27.6004 44.5934C27.9193 45.1095 27.9923 45.7396 28.3392 46.2399C28.6802 46.6769 29.092 47.0702 29.3273 47.5793C29.5825 48.1233 29.5708 48.7796 29.2987 49.3154C29.0739 49.75 28.7345 50.109 28.4221 50.4814C28.1213 50.8369 28.011 51.2988 27.8457 51.723C27.6168 52.3333 27.1945 52.9291 26.5486 53.1415C25.7696 53.3951 24.9677 53.1019 24.1817 53.0519C23.4435 53.117 22.6983 53.3643 21.9601 53.1711C21.4036 53.0216 20.9714 52.5806 20.7262 52.0732C20.4382 51.5607 20.3851 50.934 19.9897 50.4802C19.592 50.0107 19.1459 49.5447 18.9689 48.9401C18.8159 48.4229 18.9064 47.8521 19.1861 47.3943C19.4373 46.9271 19.8437 46.5727 20.1433 46.1404C20.4336 45.6529 20.5083 45.0687 20.819 44.5893C21.0999 44.0703 21.6203 43.6817 22.2142 43.6119ZM22.3835 45.1671C22.2177 45.2276 22.1464 45.4091 22.0758 45.5569C21.9041 45.97 21.7791 46.4034 21.5683 46.8002C21.3078 47.3099 20.8482 47.6782 20.5463 48.1593C20.4429 48.3054 20.4382 48.5073 20.5369 48.6574C20.7746 49.0501 21.1291 49.3556 21.3867 49.7343C21.6769 50.1416 21.8282 50.6233 22.001 51.0865C22.0717 51.2628 22.1389 51.4489 22.2691 51.5921C22.3999 51.7265 22.6061 51.6916 22.7748 51.6793C23.0826 51.6299 23.3921 51.5909 23.6993 51.5351C24.3294 51.4501 24.9607 51.5676 25.5815 51.6712C25.7912 51.6956 26.0768 51.7439 26.2023 51.524C26.4313 51.1388 26.5381 50.6978 26.7174 50.29C26.8932 49.8449 27.2185 49.4841 27.5245 49.124C27.6787 48.9384 27.8515 48.7557 27.9333 48.5247C27.9864 48.3572 27.8965 48.1925 27.8031 48.0599C27.5227 47.6636 27.1583 47.3303 26.9072 46.9131C26.6333 46.4511 26.5118 45.9217 26.2817 45.4399C26.2169 45.2974 26.1036 45.1479 25.9308 45.1479C25.4548 45.1223 24.9993 45.2939 24.5268 45.3131C24.0176 45.3777 23.5089 45.27 23.009 45.1863C22.8029 45.1566 22.5897 45.117 22.3835 45.1671Z" fill="#1A194E"/>
<path d="M16.7789 21.0026C16.7684 20.8007 16.8408 20.6104 16.9342 20.4353C17.1515 20.4999 17.2957 20.6936 17.4394 20.8571C17.697 21.1864 17.9288 21.546 18.0847 21.9329C15.0374 23.5777 12.6851 26.46 11.7069 29.7741C11.1381 29.6798 10.5646 29.5006 10.0927 29.1597C9.96888 29.0561 9.78901 28.9264 9.84741 28.7408C9.91399 28.6279 10.0255 28.5528 10.14 28.4941C10.6808 28.2165 11.2998 28.1095 11.8091 27.768C12.205 27.5178 12.5367 27.139 12.6541 26.6794C12.8579 25.8817 12.9046 25.048 13.1657 24.2642C13.258 23.9978 13.4589 23.6981 13.7812 23.7278C14.4108 23.7441 15.0684 23.7319 15.6454 23.4491C16.1073 23.2397 16.4454 22.8173 16.6101 22.3454C16.7591 21.9154 16.7882 21.4546 16.7789 21.0026Z" fill="#656BB1"/>
<path d="M18.942 23.238C20.8038 22.239 22.9424 21.7613 25.0536 21.8608C27.0882 21.9725 29.0978 22.6003 30.8118 23.7034C32.2526 24.6192 33.4842 25.8532 34.4058 27.2863C34.4414 27.3328 34.4864 27.4317 34.3982 27.4538C34.0945 27.5952 33.799 27.7529 33.5128 27.9263C33.0859 27.1681 32.5008 26.5066 31.8794 25.9004C30.0602 24.1398 27.5882 23.0791 25.0577 22.9447C24.3744 22.9366 23.687 22.9197 23.0102 23.0332C20.6391 23.3508 18.3954 24.4988 16.7491 26.2268C15.2891 27.7418 14.2946 29.6985 13.9453 31.7703C13.5745 33.8399 13.8706 36.0019 14.7028 37.9271C14.6864 37.5175 14.5609 37.1225 14.5206 36.7158C14.3857 35.5713 14.4417 34.4089 14.6625 33.2784C15.08 31.2764 16.0915 29.4006 17.5422 27.953C18.5449 26.9412 19.7555 26.1366 21.076 25.5984C20.9545 26.0004 20.9586 26.4577 21.2132 26.8103C21.6681 27.4527 22.4256 27.793 23.1608 28.01C24.5508 28.3853 26.0476 28.3772 27.4281 27.9647C28.1336 27.7255 28.873 27.3805 29.2753 26.7231C29.4657 26.4176 29.447 26.0522 29.4114 25.7107C30.7721 26.2809 31.9757 27.1821 32.9878 28.2463C31.2037 29.4099 29.6976 30.9983 28.6475 32.8484C28.1406 33.7177 27.768 34.6556 27.4585 35.6103C26.5142 35.6272 25.5693 35.7034 24.6436 35.8983C21.156 36.6017 18.0035 38.7836 16.1102 41.7828C16.0833 41.766 16.0302 41.7316 16.0039 41.7148C14.4896 40.1444 13.4086 38.1535 12.966 36.0176C12.4053 33.5007 12.7516 30.8063 13.8776 28.49C14.9545 26.2663 16.7544 24.3981 18.942 23.238ZM23.9633 30.0464C23.7168 30.0935 23.4762 30.1942 23.294 30.3693C23.1649 30.5043 23.1048 30.7207 23.1953 30.8929C23.2887 31.0628 23.454 31.185 23.6321 31.2583C24.066 31.4381 24.5624 31.4527 25.0139 31.3281C25.272 31.2525 25.536 31.114 25.6662 30.8679C25.6983 30.705 25.7059 30.5043 25.5623 30.3897C25.1482 29.9882 24.504 29.944 23.9633 30.0464Z" fill="#656BB1"/>
<path d="M37.6405 27.9484C39.9059 27.4172 42.3306 27.6022 44.4967 28.4453C46.3836 29.1644 48.062 30.395 49.348 31.9438C49.4309 32.0491 49.5261 32.1521 49.5705 32.2812C49.7726 32.8974 49.9898 33.5112 50.106 34.1518C50.3723 35.412 50.3986 36.7182 50.2234 37.9923C50.2146 38.0878 50.1714 38.1739 50.1265 38.2571C49.991 37.6467 49.5705 37.1685 49.2084 36.6798C48.9088 36.2987 48.8504 35.803 48.6682 35.3666C48.4755 34.8377 48.1566 34.3123 47.6275 34.0645C47.0324 33.7643 46.348 33.919 45.7278 34.0447C45.1356 34.1832 44.5633 33.8911 43.9734 33.8923C43.4694 33.8597 42.9549 34.05 42.6057 34.4159C42.3213 34.7196 42.1321 35.1001 42.0059 35.4929C41.8553 35.9426 41.7414 36.4226 41.4278 36.7944C40.9828 37.3564 40.5021 37.9935 40.5395 38.7481C40.5197 39.4987 41.0056 40.123 41.4465 40.6833C41.8413 41.1656 41.9055 41.8056 42.1595 42.3566C42.3616 42.8011 42.681 43.2246 43.1494 43.4114C43.7439 43.6802 44.4085 43.5202 45.0182 43.3969C45.5929 43.2735 46.1459 43.5493 46.7177 43.5557C47.1808 43.5859 47.6544 43.4428 48.0083 43.1409C47.9604 43.3329 47.8179 43.4737 47.6918 43.618C45.9275 45.727 43.3579 47.1484 40.626 47.5185L40.6154 47.5196C40.2685 43.9356 38.3454 40.5512 35.4751 38.3711C34.4052 37.5414 33.1986 36.8962 31.9337 36.4168C31.9629 36.4156 32.0213 36.4139 32.0511 36.4127C32.4902 35.3497 33.0848 34.349 33.8329 33.4728C34.1622 33.0934 34.4969 32.7094 34.8963 32.4022C35.0657 32.799 35.4289 33.083 35.8482 33.179C36.7628 33.3995 37.7159 33.1097 38.52 32.6716C39.2506 32.2405 39.9514 31.622 40.1815 30.7778C40.2796 30.4619 40.2014 30.1366 40.0968 29.8347C41.8582 29.485 43.706 29.6211 45.413 30.1675C45.7254 30.2553 46.0174 30.4008 46.3293 30.4892C46.0478 30.2454 45.7085 30.0831 45.3891 29.8958C43.8327 29.0591 42.0678 28.6117 40.2995 28.6035C38.4091 28.6035 36.5146 29.0841 34.8771 30.0319C32.6362 31.3003 30.8924 33.3989 30.0392 35.8198C30.062 35.8431 30.1069 35.8891 30.1297 35.9123C29.7817 35.8367 29.4289 35.7878 29.0791 35.7256C29.607 34.05 30.5654 32.5221 31.776 31.2514C33.3587 29.6217 35.4149 28.4412 37.6405 27.9484Z" fill="#656BB1"/>
<path d="M22.1313 38.3973C23.8144 37.5571 25.7065 37.1429 27.587 37.1737C29.7034 37.2197 31.8087 37.8347 33.5987 38.9646C35.37 40.0671 36.8335 41.6496 37.8006 43.4934C38.0932 44.077 38.3834 44.6728 38.5399 45.3087C38.6602 46.4543 38.6725 47.6179 38.4704 48.7554C37.9869 51.8251 36.1806 54.6492 33.6209 56.4179C32.1072 57.4803 30.3318 58.1663 28.4975 58.413C27.7056 58.5305 26.9026 58.5038 26.1048 58.4869C24.2886 58.3641 22.501 57.8079 20.9411 56.8723C18.7517 55.5772 17.0043 53.5513 16.0664 51.1915C15.928 50.8802 15.8498 50.5457 15.6956 50.2414C15.5689 49.5827 15.5554 48.9014 15.6103 48.2341C15.7195 46.0086 16.515 43.828 17.829 42.0284C18.9415 40.4965 20.4318 39.2392 22.1313 38.3973ZM23.6748 39.0088C21.9129 39.6563 20.3337 40.7862 19.1494 42.2373C17.7583 43.924 16.9267 46.054 16.7871 48.2306C16.7877 48.8508 16.7474 49.4763 16.8373 50.093C16.9214 50.9692 17.1638 51.8222 17.4453 52.6536C17.4558 52.3411 17.4126 52.0305 17.3915 51.7198C17.2642 49.0097 18.2383 46.2652 20.0622 44.2481C21.5812 42.5381 23.6742 41.343 25.9255 40.9113C25.9518 41.3448 26.1667 41.7433 26.4862 42.0337C27.1303 42.6643 27.9771 43.0454 28.8286 43.3131C29.9446 43.6581 31.1348 43.8035 32.2952 43.6366C32.8453 43.5301 33.4334 43.3724 33.8282 42.9489C33.9182 42.8633 33.9468 42.7231 34.0466 42.6515C34.1488 42.6987 34.2364 42.7714 34.327 42.8389C35.8909 44.0182 37.1354 45.6328 37.821 47.4673C37.835 47.1135 37.72 46.7731 37.6546 46.4293C37.1996 44.5384 36.208 42.779 34.8169 41.4152C33.3575 39.9641 31.4613 38.9506 29.436 38.5596C27.5228 38.1838 25.5033 38.3275 23.6748 39.0088ZM22.2142 43.6121C21.6203 43.6819 21.0999 44.0706 20.819 44.5896C20.5083 45.069 20.4336 45.6531 20.1433 46.1407C19.8438 46.573 19.4373 46.9273 19.1862 47.3945C18.9064 47.8524 18.8159 48.4232 18.9689 48.9404C19.1459 49.5449 19.592 50.011 19.9898 50.4805C20.3851 50.9343 20.4383 51.5609 20.7262 52.0735C20.9715 52.5809 21.4036 53.0219 21.9602 53.1714C22.6983 53.3646 23.4435 53.1173 24.1817 53.0521C24.9678 53.1022 25.7696 53.3954 26.5487 53.1417C27.1946 52.9294 27.6168 52.3336 27.8457 51.7233C28.011 51.2991 28.1214 50.8371 28.4221 50.4817C28.7346 50.1093 29.0739 49.7503 29.2987 49.3157C29.5709 48.7798 29.5825 48.1235 29.3273 47.5795C29.092 47.0705 28.6803 46.6771 28.3392 46.2402C27.9923 45.7398 27.9193 45.1097 27.6004 44.5937C27.3528 44.1643 26.961 43.796 26.4698 43.6715C25.7293 43.455 24.9754 43.7273 24.2337 43.7803C23.5592 43.7494 22.8963 43.5121 22.2142 43.6121Z" fill="#656BB1"/>
<path d="M23.0102 23.0331C23.687 22.9197 24.3744 22.9365 25.0577 22.9447C27.5881 23.0791 30.0602 24.1397 31.8794 25.9003C32.5007 26.5066 33.0859 27.1681 33.5128 27.9262C33.3318 28.0222 33.1577 28.1316 32.9878 28.2462C31.9757 27.1821 30.7721 26.2808 29.4114 25.7106C29.447 26.0522 29.4657 26.4175 29.2753 26.723C28.8729 27.3805 28.1336 27.7255 27.4281 27.9646C26.0475 28.3771 24.5507 28.3853 23.1608 28.01C22.4256 27.793 21.6681 27.4526 21.2132 26.8103C20.9586 26.4577 20.9545 26.0004 21.0759 25.5983C19.7555 26.1365 18.5449 26.9412 17.5422 27.953C16.0915 29.4005 15.08 31.2763 14.6625 33.2783C14.4417 34.4088 14.3856 35.5713 14.5205 36.7157C14.5608 37.1224 14.6864 37.5175 14.7028 37.9271C13.8706 36.0018 13.5745 33.8398 13.9453 31.7703C14.2945 29.6984 15.2891 27.7418 16.7491 26.2267C18.3954 24.4987 20.6391 23.3508 23.0102 23.0331Z" fill="#A1A1D0"/>
<path d="M34.877 30.0319C36.5146 29.0841 38.4091 28.6035 40.2995 28.6035C42.0678 28.6117 43.8327 29.0591 45.389 29.8957C45.7085 30.0831 46.0478 30.2454 46.3293 30.4892C46.0174 30.4008 45.7254 30.2553 45.413 30.1674C43.706 29.6211 41.8582 29.485 40.0968 29.8346C40.2014 30.1366 40.2796 30.4618 40.1815 30.7778C39.9514 31.622 39.2506 32.2405 38.52 32.6716C37.7159 33.1097 36.7628 33.3994 35.8482 33.1789C35.4289 33.0829 35.0657 32.799 34.8963 32.4022C34.4969 32.7094 34.1622 33.0934 33.8328 33.4728C33.0847 34.349 32.4902 35.3497 32.0511 36.4127C32.0213 36.4138 31.9629 36.4156 31.9337 36.4168C31.3403 36.2242 30.7476 36.0141 30.1297 35.9123C30.1069 35.889 30.062 35.8431 30.0392 35.8198C30.8924 33.3989 32.6362 31.3002 34.877 30.0319Z" fill="#A1A1D0"/>
<path d="M23.9633 30.0462C24.504 29.9438 25.1482 29.988 25.5623 30.3895C25.7059 30.5041 25.6983 30.7048 25.6662 30.8678C25.536 31.1139 25.272 31.2523 25.0139 31.328C24.5625 31.4525 24.0661 31.4379 23.6321 31.2582C23.454 31.1848 23.2887 31.0627 23.1953 30.8928C23.1048 30.7206 23.1649 30.5041 23.294 30.3691C23.4762 30.194 23.7168 30.0934 23.9633 30.0462Z" fill="#A1A1D0"/>
<path d="M23.6748 39.0087C25.5033 38.3274 27.5227 38.1837 29.4359 38.5595C31.4612 38.9505 33.3575 39.964 34.8169 41.4151C36.208 42.7789 37.1996 44.5383 37.6546 46.4292C37.72 46.773 37.835 47.1134 37.821 47.4672C37.1354 45.6327 35.8909 44.0181 34.3269 42.8388C34.2364 42.7713 34.1488 42.6986 34.0466 42.6514C33.9467 42.723 33.9181 42.8632 33.8282 42.9488C33.4334 43.3723 32.8453 43.53 32.2952 43.6365C31.1348 43.8034 29.9446 43.658 28.8286 43.313C27.9771 43.0453 27.1303 42.6642 26.4861 42.0336C26.1667 41.7432 25.9518 41.3447 25.9255 40.9112C23.6742 41.3429 21.5811 42.538 20.0621 44.248C18.2383 46.2651 17.2642 49.0096 17.3915 51.7197C17.4125 52.0304 17.4557 52.341 17.4452 52.6535C17.1637 51.8221 16.9214 50.9691 16.8373 50.0929C16.7474 49.4762 16.7877 48.8507 16.7871 48.2305C16.9266 46.0539 17.7583 43.9239 19.1493 42.2372C20.3337 40.7861 21.9128 39.6562 23.6748 39.0087Z" fill="#A1A1D0"/>
<path d="M49.5705 32.281C49.7586 32.416 49.8619 32.6313 49.9957 32.8145C51.0422 34.3313 51.7009 36.1041 51.941 37.9276C52.0449 38.681 52.014 39.4449 52.0035 40.2036C51.8341 42.5036 50.9756 44.7523 49.5448 46.5676C48.1047 48.4218 46.0934 49.8286 43.8537 50.5478C43.0572 50.7886 42.2419 50.9812 41.4114 51.0563C41.1136 51.0545 40.8181 51.1337 40.5203 51.0947C40.5606 50.6833 40.6236 50.2749 40.661 49.863C40.7077 49.0816 40.696 48.2973 40.626 47.5182C43.3579 47.1482 45.9275 45.7268 47.6918 43.6177C47.8179 43.4734 47.9604 43.3326 48.0083 43.1406C48.2472 42.8992 48.4352 42.6164 48.5719 42.3057C48.5882 42.3139 48.6209 42.3308 48.6373 42.3389C48.9877 41.7443 49.313 41.1328 49.5647 40.4899C49.5968 40.4084 49.6044 40.3211 49.6108 40.2356C50.0406 39.6841 50.3134 38.9539 50.1265 38.2569C50.1714 38.1737 50.2147 38.0875 50.2234 37.9921C50.3986 36.7179 50.3723 35.4118 50.106 34.1515C49.9898 33.511 49.7726 32.8972 49.5705 32.281Z" fill="#3C469D"/>
<path d="M43.7673 35.4623C44.0896 35.4146 44.4033 35.5257 44.7174 35.5764C45.1473 35.6607 45.5946 35.6596 46.0233 35.57C46.3229 35.5188 46.6225 35.4204 46.9296 35.4612C47.0885 35.5682 47.1457 35.7689 47.2146 35.9382C47.3764 36.4177 47.5031 36.9169 47.7735 37.3509C48.0235 37.7774 48.4136 38.116 48.5964 38.5814C48.6892 38.8566 48.4901 39.1092 48.3423 39.3227C48.0357 39.7265 47.7029 40.1244 47.5242 40.6056C47.3379 41.0303 47.2736 41.5068 47.026 41.9036C46.9553 42.0415 46.7795 41.9915 46.6563 41.9903C46.136 41.9164 45.618 41.7529 45.0871 41.8199C44.6725 41.8495 44.2748 42.0066 43.8572 41.9973C43.7235 42.0124 43.6721 41.8676 43.6178 41.7756C43.4332 41.3783 43.3392 40.9465 43.1675 40.5439C43.004 40.1023 42.6898 39.7451 42.4136 39.3716C42.2734 39.1836 42.1274 38.9858 42.0889 38.749C42.0865 38.6018 42.1584 38.4651 42.2325 38.3417C42.4924 37.9292 42.8463 37.579 43.063 37.1385C43.275 36.7196 43.3807 36.26 43.5512 35.8248C43.6061 35.6956 43.6575 35.5554 43.7673 35.4623Z" fill="#3C469D"/>
<path d="M22.3836 45.1672C22.5897 45.1172 22.8029 45.1567 23.009 45.1864C23.5089 45.2702 24.0176 45.3778 24.5268 45.3132C24.9993 45.294 25.4548 45.1224 25.9308 45.148C26.1036 45.148 26.2169 45.2975 26.2818 45.4401C26.5119 45.9218 26.6333 46.4513 26.9072 46.9132C27.1583 47.3304 27.5228 47.6638 27.8031 48.06C27.8965 48.1926 27.9865 48.3573 27.9333 48.5249C27.8516 48.7558 27.6787 48.9385 27.5245 49.1241C27.2185 49.4843 26.8932 49.845 26.7174 50.2901C26.5381 50.698 26.4313 51.139 26.2023 51.5241C26.0768 51.7441 25.7912 51.6958 25.5815 51.6713C24.9608 51.5678 24.3294 51.4502 23.6993 51.5352C23.3921 51.591 23.0826 51.63 22.7748 51.6795C22.6061 51.6917 22.3999 51.7266 22.2691 51.5922C22.1389 51.4491 22.0717 51.2629 22.001 51.0866C21.8282 50.6235 21.6769 50.1417 21.3867 49.7345C21.1291 49.3557 20.7746 49.0502 20.537 48.6575C20.4383 48.5074 20.4429 48.3055 20.5463 48.1595C20.8482 47.6783 21.3078 47.31 21.5683 46.8004C21.7791 46.4036 21.9041 45.9701 22.0758 45.557C22.1465 45.4092 22.2177 45.2277 22.3836 45.1672Z" fill="#3C469D"/>
<path d="M38.5399 45.3086C38.6614 45.5291 38.6959 45.7834 38.7747 46.0202C39.1333 47.5015 39.2302 49.0514 39.0089 50.5613C38.6211 53.3953 37.1167 56.0507 34.9162 57.8823C33.1303 59.3857 30.8837 60.3346 28.5588 60.5726C28.2481 60.6139 27.9339 60.593 27.6232 60.6308C27.3499 60.6657 27.0789 60.6069 26.8062 60.6034C25.8934 60.5941 24.9882 60.4242 24.1134 60.1711C20.9148 59.2757 18.1624 56.9432 16.7404 53.9538C16.2714 52.9997 15.9578 51.9745 15.7557 50.933C15.7324 50.7026 15.667 50.4734 15.6956 50.2413C15.8498 50.5455 15.928 50.8801 16.0664 51.1914C17.0043 53.5512 18.7517 55.5771 20.9411 56.8722C22.5009 57.8078 24.2886 58.364 26.1048 58.4868C26.9026 58.5036 27.7056 58.5304 28.4975 58.4129C30.3318 58.1662 32.1072 57.4802 33.6209 56.4178C36.1806 54.6491 37.9869 51.825 38.4704 48.7553C38.6725 47.6178 38.6602 46.4542 38.5399 45.3086Z" fill="#3C469D"/>
<path d="M49.6108 40.2356C49.6043 40.3211 49.5968 40.4084 49.5646 40.4898C49.3129 41.1328 48.9876 41.7443 48.6372 42.3389C48.6209 42.3307 48.5882 42.3139 48.5718 42.3057C48.7365 41.9735 48.8235 41.6116 48.9438 41.2631C49.0758 40.8692 49.3778 40.5701 49.6108 40.2356Z" fill="#656CB2"/>
</svg>
